<svg xmlns="http://www.w3.org/2000/svg" viewBox="0 0 24 24">
  <path d="M12 .297c-6.63 0-12 5.373-12 12 0 5.303 3.438 9.8 8.205 11.387.6.113.82-.258.82-.577v-2.234c-3.338.724-4.033-1.416-4.033-1.416-.546-1.387-1.333-1.757-1.333-1.757-1.09-.745.084-.729.084-.729 1.205.084 1.838 1.236 1.838 1.236 1.07 1.835 2.809 1.305 3.495.998.108-.775.418-1.305.762-1.605-2.665-.3-5.466-1.332-5.466-5.931 0-1.31.469-2.381 1.236-3.221-.123-.303-.536-1.523.117-3.176 0 0 1.008-.322 3.301 1.23a11.52 11.52 0 013.003-.404c1.018.005 2.045.138 3.003.404 2.291-1.552 3.297-1.23 3.297-1.23.655 1.653.242 2.873.12 3.176.77.84 1.235 1.911 1.235 3.221 0 4.61-2.807 5.628-5.479 5.922.43.372.823 1.102.823 2.222v3.293c0 .319.218.694.825.576C20.565 22.092 24 17.592 24 12.297c0-6.627-5.373-12-12-12" />
</svg>